<svg width="160" height="160" viewBox="0 0 160 160" fill="none" xmlns="http://www.w3.org/2000/svg">
<path opacity="0.15" d="M160 80C160 124.138 124.187 160 79.9686 160C35.8134 159.937 0 124.138 0 80C0 35.7994 35.8134 0 80.0314 0C124.187 0 160 35.7994 160 80Z" fill="white"/>
<path d="M150.001 80C150.001 118.621 118.664 150 79.9731 150C41.337 149.945 10 118.621 10 80C10 41.3245 41.337 10 80.028 10C118.664 10 150.001 41.3245 150.001 80Z" fill="white"/>
<path d="M131.231 91.3558C130.682 91.2461 130.243 91.2461 129.749 91.4107C129.31 91.5752 128.652 92.0141 127.829 92.7821C127.719 92.837 127.609 93.0016 127.444 93.1113C126.347 94.0988 125.579 94.5376 125.03 94.3731C124.591 94.2085 124.261 93.989 124.097 93.6599C123.877 93.2759 123.877 92.837 123.987 92.3981C124.097 91.9044 124.371 91.5752 124.7 91.4107C125.03 91.3009 125.524 91.301 126.127 91.4655L126.292 91.5204L126.676 90.1489C126.621 90.0941 126.621 90.0941 126.566 90.0941C126.512 90.0941 126.457 90.0392 126.457 90.0392C125.524 89.8198 124.81 89.8746 124.207 90.2038C123.658 90.5878 123.219 91.1912 122.944 92.1787C122.67 93.1113 122.725 93.8793 123.054 94.5376C123.383 95.1959 123.987 95.6348 124.865 95.8543C125.359 95.964 125.798 95.964 126.182 95.8543C126.566 95.6897 127.17 95.3057 127.884 94.6474C127.993 94.5376 128.158 94.3731 128.377 94.2085C129.53 93.1113 130.408 92.6724 131.067 92.837C131.451 92.9467 131.725 93.1662 131.89 93.5502C132.054 93.8793 132.109 94.2633 132 94.7022C131.89 95.1959 131.615 95.4702 131.286 95.6348C130.957 95.7994 130.573 95.8542 130.024 95.6897L129.804 95.6348L129.42 96.9514L129.64 97.0063C130.463 97.2257 131.176 97.1709 131.725 96.8417C132.274 96.4577 132.658 95.8542 132.933 94.9765C133.152 94.1536 133.097 93.3856 132.823 92.7273C132.494 91.9593 131.945 91.5204 131.231 91.3558Z" fill="#0067AC"/>
<path d="M80.0277 36.6615L79.863 26.6223L78.5459 26.6771L78.7105 36.7163L80.0277 36.6615Z" fill="#0067AC"/>
<path d="M120.804 98.6521L120.255 99.9138L121.133 100.298L129.475 103.973L130.024 102.712L121.133 98.8166L120.804 98.6521Z" fill="#0067AC"/>
<path d="M93.3091 33.7539L94.2969 34.0831L94.8458 34.3025C95.5043 34.522 95.9434 34.7963 96.1629 35.1803C96.3824 35.5643 96.4373 36.058 96.2178 36.6066C95.9983 37.2101 95.7238 37.5941 95.2848 37.7586C95.0104 37.8684 94.6811 37.8684 94.2969 37.8135C94.0774 37.8135 93.8579 37.7038 93.6384 37.6489L92.2115 37.2101L93.3091 33.7539ZM94.2969 30.7916L94.6811 29.5847L96.0531 30.0235C96.7117 30.243 97.0959 30.5173 97.3154 30.7916C97.5349 31.1207 97.5349 31.5047 97.3703 32.0533C97.2056 32.6568 96.9312 32.9859 96.5471 33.1505C96.1629 33.3151 95.669 33.3151 95.0104 33.0956L94.3518 32.8762L93.7481 32.6568L94.2969 30.7916ZM94.2969 39.0204C94.9555 39.185 95.5592 39.1301 95.9983 38.9107C96.6019 38.6364 97.0959 37.9781 97.3703 37.1003C97.5898 36.442 97.5898 35.8934 97.3703 35.3997C97.1508 34.906 96.8215 34.522 96.2178 34.2477C96.7666 34.3025 97.2605 34.1928 97.6447 33.8637C98.0288 33.5345 98.3032 33.0956 98.5777 32.4373C98.7972 31.6693 98.7972 31.011 98.4679 30.4624C98.1386 29.9687 97.48 29.5298 96.4922 29.2006L94.2421 28.4875L93.7481 28.3229L90.6748 37.8684L93.5835 38.801C93.8579 38.9107 94.0774 38.9107 94.2969 39.0204Z" fill="#0067AC"/>
<path d="M48.1421 38.3072L50.502 36.6615L51.0508 45.4937L51.5447 46.2069L51.8191 46.6458L56.7035 43.1897L56.0998 42.2571L52.3131 44.8903L51.7094 36.0031L51.5447 35.7837L50.941 35.0157L48.1421 36.9357L46.3311 38.2524L46.9896 39.1301L48.1421 38.3072Z" fill="#0067AC"/>
<path d="M60.5446 34.522L62.1911 36.442L60.5446 37.1552L59.5568 37.5941L58.8982 32.6019L60.5446 34.522ZM60.1056 41.3793L59.7214 38.8558L60.5446 38.4718L62.9594 37.3746L64.5509 39.3495L65.923 38.8009L60.5446 32.6567L59.008 30.8464L57.5811 31.5047L58.7884 41.9279L60.1056 41.3793Z" fill="#0067AC"/>
<path d="M130.628 104.468L132 105.071L132.549 103.919L131.177 103.315L130.628 104.468Z" fill="#0067AC"/>
<path d="M70.3134 28.5972C70.3682 28.5972 70.4231 28.5972 70.5329 28.5972C70.9719 28.5423 71.3012 28.5972 71.5756 28.8166C71.85 29.036 72.0696 29.3652 72.1793 29.8589C72.2891 30.5172 72.2342 30.9561 71.9049 31.2853C71.6854 31.5596 71.1915 31.8338 70.5329 31.9436H70.3682L69.4353 32.1081L68.8316 28.8166L70.3134 28.5972ZM70.4231 37.7038L69.5999 33.2053L70.5329 33.0407L71.1915 32.931C71.5756 32.8762 71.9598 32.8762 72.1244 33.0956C72.344 33.2602 72.5086 33.6442 72.6184 34.1928C72.6732 34.4122 72.7281 34.6865 72.783 35.0157C72.9477 36.058 73.1672 36.7712 73.3867 37.21L74.7587 36.9906C74.5941 36.6614 74.4843 36.3871 74.3746 36.058C74.2648 35.7288 74.155 35.3997 74.1001 35.0157C74.1001 34.9059 74.1001 34.7962 74.0453 34.5219C73.9904 34.3025 73.9904 34.1379 73.9355 33.9733C73.8257 33.2602 73.6062 32.7664 73.3318 32.547C73.0574 32.2727 72.6732 32.163 72.1244 32.163C72.6732 31.9436 73.0574 31.5596 73.2769 31.1207C73.4965 30.6818 73.4965 30.1332 73.3867 29.4749C73.2769 28.5972 72.8928 28.0486 72.344 27.7743C71.9049 27.5549 71.3012 27.4451 70.478 27.5549C70.3134 27.5549 70.0938 27.6097 69.9292 27.6097L67.2949 28.0486L68.9962 37.978L70.4231 37.7038Z" fill="#0067AC"/>
<path d="M122.78 68.6442L132.439 65.8464L132.109 64.5298L122.396 67.3276L122.78 68.6442Z" fill="#0067AC"/>
<path d="M133.591 70.0157L128.213 73.4169L124.042 73.9655L124.207 75.337L128.268 74.7335L134.524 76.6536L134.36 75.3919L129.365 74.0752L133.866 71.4969L133.591 70.0157Z" fill="#0067AC"/>
<path d="M135.128 65.0789L134.744 63.8166L133.317 64.2556L133.702 65.5179L135.128 65.0789Z" fill="#0067AC"/>
<path d="M124.207 86.1991L125.305 86.2539L125.579 82.5235L129.037 82.7978L128.817 86.3637L129.915 86.4734L130.189 82.9075L133.427 83.127L133.153 86.8025L134.25 86.8574L134.58 81.8652L124.591 81.1521L124.207 86.1991Z" fill="#0067AC"/>
<path d="M104.505 43.3542L104.834 42.8057L104.505 42.6959L101.596 40.9953L103.297 37.9781L104.505 38.6364L106.425 39.7336L106.974 38.7461L104.505 37.3746L103.791 36.9906L104.505 35.7288L105.383 34.1928L108.127 35.7288L108.621 35.9483L109.169 35.0157L108.127 34.4122L104.779 32.547L104.505 32.9859L99.8945 41.3793L104.285 43.7931L104.505 43.3542Z" fill="#0067AC"/>
<path d="M113.121 51.4185L113.835 52.3511L115.536 54.4358L116.249 55.3135L117.127 54.6003L115.536 52.6803L114.768 51.7477L115.536 51.0894L117.512 49.5533L119.762 52.2963L120.64 51.5831L118.335 48.8402L120.859 46.8104L121.134 47.0847L123.219 49.663L124.042 48.9499L121.134 45.3292L120.859 45.0549L115.536 49.3888L113.835 50.8151L113.121 51.4185Z" fill="#0067AC"/>
<path d="M107.139 45.9875L108.127 46.8103L110.761 49.0047L110.871 48.895L111.529 48.127L110.871 47.5784L108.895 45.9326L110.871 43.5737L113.834 40.0078L114.602 39.0752L113.834 38.4718L113.615 38.2523L110.871 41.5439L108.127 44.7806L107.139 45.9875Z" fill="#0067AC"/>
<path d="M27.2323 88.7226C27.1774 88.174 27.1774 87.6803 27.3421 87.3511C27.4518 87.0768 27.7262 86.8025 28.1104 86.5831C28.2202 86.5282 28.6043 86.4734 29.0434 86.3637C29.5373 86.2539 30.141 86.1442 30.8544 86.0894C31.7874 85.9248 32.5009 85.9248 32.9948 85.9248C33.4338 85.9248 33.7082 85.9248 33.9826 86.0345C34.0375 86.0345 34.0924 86.0345 34.1473 86.0894C34.4217 86.1991 34.6412 86.3637 34.751 86.6379C34.8607 86.9122 34.9705 87.2963 35.0803 87.79L35.2449 89.1615L34.0375 89.326L27.5067 90.1489L27.2323 88.7226ZM36.4523 90.3684L36.123 88.0094C36.0132 87.022 35.7937 86.3088 35.6291 85.8699C35.4096 85.4859 35.0254 85.1568 34.5863 84.9373C34.3668 84.8276 34.2022 84.7179 33.9278 84.7179C33.7082 84.663 33.5436 84.663 33.2692 84.663C32.7204 84.6082 31.8972 84.663 30.7996 84.8276C29.2629 84.9922 28.275 85.2116 27.7262 85.3762C27.1774 85.5956 26.7933 85.8699 26.5188 86.2539C26.2993 86.5282 26.1347 86.9122 26.1347 87.2414C26.0798 87.6254 26.0798 88.2837 26.1896 89.2163L26.5188 91.6301L33.9826 90.6975L36.4523 90.3684Z" fill="#0067AC"/>
<path d="M31.7326 80.1097C32.5009 80.1646 33.1046 80.1646 33.4888 80.1097C33.5985 80.1097 33.7632 80.1097 33.8729 80.0549C34.0925 80 34.312 79.8903 34.4766 79.7806C34.9157 79.5063 35.1901 79.232 35.4096 78.7931C35.6291 78.4091 35.7938 77.9154 35.7938 77.3668C35.9035 76.2696 35.684 75.4467 35.1352 74.8981C34.8059 74.569 34.4218 74.3496 33.8729 74.185C33.379 74.0753 32.8302 73.9655 32.1716 73.8558L25.9152 73.3072L25.8055 74.569L32.0619 75.1176H32.2814C32.8302 75.1724 33.2144 75.2273 33.4888 75.2822C33.5985 75.337 33.7632 75.3919 33.8729 75.4467C33.9278 75.4467 34.0376 75.5016 34.0925 75.5565C34.312 75.7759 34.5315 75.9953 34.6413 76.2696C34.751 76.5439 34.8059 76.8182 34.751 77.2022C34.751 77.5862 34.6413 77.8605 34.4766 78.1348C34.3669 78.3543 34.1473 78.5737 33.8729 78.6834C33.8729 78.6834 33.8181 78.7383 33.7632 78.7383C33.5985 78.848 33.379 78.9028 33.1046 78.9028C32.8851 78.9577 32.446 78.9577 31.8972 78.848L25.4213 78.2445L25.3115 79.5063L31.4033 80.0549L31.7326 80.1097Z" fill="#0067AC"/>
<path d="M36.6713 70.3448L37.0555 69.1928L33.9273 68.0956L30.1954 66.8339C29.9759 66.779 29.7564 66.6693 29.4271 66.6144C29.0978 66.5596 28.7685 66.4499 28.3294 66.3401L33.8724 65.9013L38.208 65.627L38.8117 63.9264L33.8724 62.2257L29.2624 60.6348L28.8783 61.7869L33.8724 63.4875L35.5737 64.0361C35.8481 64.1458 36.1225 64.2555 36.4518 64.3652C36.7262 64.4201 37.0555 64.5298 37.3848 64.6395L33.9273 64.859L27.7258 65.243L27.1221 67.0533L33.9273 69.3574L36.6713 70.3448Z" fill="#0067AC"/>
<path d="M121.133 58.1662L126.731 55.2038L127.39 56.4655C127.664 56.9593 127.774 57.3981 127.774 57.7822C127.774 58.1113 127.664 58.4405 127.335 58.7696C127.225 58.9342 127.006 59.0988 126.567 59.3731C126.128 59.6474 125.634 59.9217 125.03 60.2508C124.207 60.6897 123.548 60.964 123.054 61.1834C122.615 61.4028 122.231 61.4577 121.957 61.4577C121.682 61.4028 121.408 61.348 121.188 61.1285C121.188 61.1285 121.133 61.1286 121.133 61.0737C120.914 60.8543 120.694 60.58 120.53 60.1959L119.816 58.9342L121.133 58.1662ZM120.53 62.116C120.694 62.2257 120.914 62.3354 121.133 62.4452C121.353 62.5549 121.627 62.6097 121.847 62.6097C122.231 62.6097 122.67 62.6097 123.164 62.3903C123.713 62.2257 124.426 61.8966 125.414 61.4028C126.786 60.6348 127.664 60.1411 128.103 59.7571C128.542 59.3731 128.817 58.9342 128.927 58.4953C129.036 58.1662 129.036 57.7822 128.927 57.3981C128.872 57.0141 128.597 56.4107 128.213 55.5878L127.061 53.4483L121.133 56.6301L118.17 58.1662L119.268 60.3057C119.761 61.2383 120.201 61.7869 120.53 62.116Z" fill="#0067AC"/>
<path d="M36.5616 56.3009L33.8724 54.71L33.7078 54.6003L33.8724 54.2712L34.4212 53.3386C34.6956 52.8448 35.0249 52.5705 35.3542 52.5157C35.6286 52.4608 36.0676 52.5705 36.6164 52.8448C37.1653 53.174 37.4945 53.5031 37.5494 53.8323C37.6043 54.1614 37.4397 54.6552 37.0555 55.3683L36.5616 56.3009ZM37.4945 56.9044L38.3726 55.4232C38.8117 54.6552 38.9763 53.9969 38.8117 53.3934C38.647 52.79 38.1531 52.2414 37.3299 51.7476C36.4518 51.2539 35.7383 51.0345 35.1895 51.1991C34.7505 51.3088 34.3114 51.6379 33.9273 52.1865C33.8175 52.406 33.6529 52.5705 33.4882 52.79L32.1162 55.1489L33.9273 56.2461L40.4581 60.1411L40.7325 60.3056L41.446 59.1536L40.4581 58.605L37.4945 56.9044Z" fill="#0067AC"/>
<path d="M43.8612 46.7006L45.6174 47.6332L43.8612 49.4984L43.5868 49.7179L41.1171 45.2743L43.8612 46.7006ZM43.8612 52.79L44.5197 53.9969L45.5076 52.9545L44.2453 50.7602L46.715 48.1818L48.1419 48.9498L48.9102 49.3887L49.8981 48.3464L48.087 47.4138L43.8063 45.2743L40.5134 43.5737L40.4037 43.7382L39.4707 44.7257L40.4037 46.4812L43.8612 52.79Z" fill="#0067AC"/>
<path d="M37.8247 98.3778C37.7698 98.6521 37.6052 98.9812 37.3308 99.2007C37.1661 99.4201 36.8917 99.5847 36.5075 99.7493C36.1234 99.9687 35.5197 100.188 34.5318 100.572C34.3123 100.627 34.0928 100.737 33.8733 100.792C33.1049 101.066 32.611 101.23 32.2268 101.285C31.8427 101.395 31.4585 101.395 31.1292 101.34C30.9097 101.285 30.6353 101.176 30.4706 101.011C30.2511 100.792 30.1414 100.572 30.0316 100.298C29.7572 99.6395 29.8121 99.0909 30.1962 98.7069C30.5804 98.2681 31.5683 97.7743 33.1049 97.1709C33.3244 97.0612 33.544 97.0063 33.7635 96.8966C34.9709 96.4577 35.7941 96.2931 36.3429 96.348C36.9466 96.4028 37.3308 96.7869 37.5503 97.4452C37.8247 97.7195 37.8796 98.1035 37.8247 98.3778ZM37.8796 95.58C37.4954 95.2508 37.0564 95.0314 36.5624 94.9217C36.1783 94.9217 35.7392 94.9217 35.1904 95.0314C34.8611 95.1411 34.4769 95.2508 33.9281 95.4154C33.5989 95.5251 33.2696 95.6348 32.8854 95.7994C31.5134 96.2931 30.6353 96.732 30.1414 97.0612C29.6474 97.3903 29.2633 97.7195 29.0986 98.1583C28.934 98.5423 28.8242 98.9264 28.8242 99.3104C28.8242 99.7492 28.934 100.243 29.0986 100.682C29.3181 101.23 29.6474 101.724 30.0316 102.053C30.4158 102.437 30.8548 102.602 31.2939 102.712C31.678 102.766 32.1171 102.766 32.6659 102.602C32.9952 102.547 33.4342 102.382 33.983 102.218C34.3123 102.053 34.6965 101.944 35.1355 101.779C36.3978 101.285 37.2759 100.846 37.7698 100.572C38.2637 100.298 38.593 99.9138 38.8125 99.5298C39.0321 99.1458 39.0869 98.8166 39.0869 98.3229C39.0869 97.884 39.0321 97.3903 38.8125 96.9514C38.5381 96.4029 38.2088 95.964 37.8796 95.58Z" fill="#0067AC"/>
<path d="M64.3861 106.223V101.011C63.0141 99.9138 61.6969 98.5972 60.5444 97.1709C59.6664 96.1285 58.898 94.9216 58.1846 93.7148V112.586C58.9529 113.135 59.7212 113.629 60.5444 114.122C61.0384 114.397 61.4774 114.726 62.0262 114.945V138.809C62.7946 139.083 63.6178 139.357 64.3861 139.577V116.152V106.223Z" fill="#0067AC"/>
<path d="M47.2633 85.5956V84.6082H43.9156H42.1045C42.3789 87.5705 42.9826 90.4232 43.9156 93.1662C44.19 94.0988 44.5193 94.9765 44.9034 95.8542V130.745C45.6718 131.403 46.495 132.061 47.3182 132.665V100.627V85.5956H47.2633Z" fill="#0067AC"/>
<path d="M55.8256 97.9389V88.1191L55.8804 84.663H51.5449H49.624V104.248C50.2277 105.071 50.8863 105.839 51.5449 106.607C52.1485 107.32 52.8071 107.978 53.4657 108.636V135.682C54.234 136.121 55.0024 136.505 55.8256 136.944V110.776V97.9389Z" fill="#0067AC"/>
<path d="M113.835 63.0486C112.956 61.348 111.969 59.7571 110.871 58.2759C110.048 57.1239 109.115 55.9718 108.127 54.9295C107.029 53.6677 105.822 52.5157 104.505 51.4734C101.486 48.895 98.0289 46.7555 94.297 45.2195C89.9065 43.4091 85.077 42.4217 80.028 42.4217C76.79 42.4217 73.6069 42.8605 70.5336 43.6834C66.9663 44.616 63.6186 46.0424 60.5453 47.9076C57.1426 49.9922 54.1242 52.5157 51.5448 55.4781C50.2825 56.8496 49.1849 58.3856 48.1971 59.9765C46.386 62.7195 44.9591 65.6819 43.9163 68.8637C43.0383 71.4969 42.4894 74.1301 42.1602 76.9828H43.9163H48.1971H51.5448H55.1669C55.8804 72.4844 57.8012 68.3151 60.5453 64.9138C63.1795 61.6223 66.5822 59.0988 70.5336 57.453C73.4971 56.2461 76.7351 55.5878 80.028 55.5878C85.2965 55.5878 90.2358 57.2336 94.297 60.0314C99.2363 63.4875 102.968 68.6991 104.505 74.7336C104.669 75.5016 104.834 76.2696 104.999 77.0376H108.127H110.871H113.835H115.536H118.006C117.621 73.4718 116.798 70.1254 115.536 66.9436C115.042 65.5173 114.493 64.2555 113.835 63.0486Z" fill="#0067AC"/>
<path d="M78.2715 103.48H80.0277H81.7839C81.1802 99.9686 80.6314 96.4577 80.0826 93.0016C80.0277 93.0564 80.0277 93.0564 80.0277 93.1113V93.0016C79.424 96.4577 78.8752 99.9686 78.2715 103.48Z" fill="#00AE8E"/>
<path d="M80.0278 79.0126C78.7107 79.0126 77.613 77.9154 77.613 76.5439C77.613 75.1724 78.7107 74.1301 80.0278 74.1301C81.3998 74.1301 82.4974 75.2273 82.4974 76.5439C82.4974 77.9154 81.3998 79.0126 80.0278 79.0126ZM96.1079 76.0502C97.8092 73.6364 97.7543 69.7963 94.0773 67.8214C95.0103 63.8715 93.0346 60.4703 88.1502 61.1834C86.9428 58.3308 82.9365 57.2884 80.0827 59.7571C80.0827 59.7022 80.0827 59.7022 80.0278 59.7022C77.0094 57.1787 73.3323 58.4953 71.9054 61.0737C68.0089 60.9091 65.3746 62.2806 65.9234 67.9859C65.4295 68.1505 60.7097 71.058 64.0575 75.9953C62.9598 80 63.7282 82.743 68.0089 83.5659C68.9967 86.7477 71.3017 88.4483 74.7044 87.79C74.43 93.0016 74.1555 98.1583 73.8811 103.425H74.8141C75.7471 98.7618 76.5703 93.5502 76.6801 87.6254C76.7349 86.4185 76.3508 82.7978 74.7044 80.6035C73.003 78.7383 71.5213 77.2571 69.9297 75.6662V73.9655C72.2347 75.7759 74.5946 77.6411 76.9545 79.4514C78.2716 80.384 79.1497 80.7132 79.9729 80.6583C80.851 80.7132 81.7291 80.384 82.9914 79.4514C85.3512 77.6411 87.6562 75.7759 90.0161 73.9655V75.6662C88.4246 77.2571 86.9428 78.7931 85.2415 80.6035C83.5951 82.7978 83.2109 86.4185 83.2658 87.6254C83.3755 93.5502 84.2536 98.7618 85.0768 103.425H85.9549C85.7354 98.2132 85.5708 93.0565 85.3512 87.8997C88.699 88.2837 90.9491 87.1317 91.937 83.6756C96.1628 83.3464 97.3702 80.1098 96.1079 76.0502Z" fill="#00AE8E"/>
<path d="M96.3271 100.517V106.223V115.933V139.467C97.0955 139.193 97.9187 138.973 98.687 138.699V114.726C100.004 113.958 101.266 113.135 102.529 112.202V92.6724C100.992 95.6348 98.8517 98.3229 96.3271 100.517Z" fill="#0067AC"/>
<path d="M66.8018 102.712V117.194C68.0091 117.633 69.2714 118.017 70.5337 118.401C70.5885 118.401 70.5885 118.456 70.5885 118.456V140.729C71.3569 140.839 72.1801 141.003 72.9484 141.113V119.005V107.43V105.564C72.1252 105.345 71.302 105.016 70.4788 104.687C69.2165 104.083 67.9543 103.425 66.8018 102.712Z" fill="#0067AC"/>
<path d="M75.3623 106.113V119.334C76.6794 119.498 77.9417 119.553 79.204 119.608V141.442C79.4784 141.442 79.7528 141.442 80.0272 141.442C80.5211 141.442 81.0699 141.442 81.5638 141.387V119.553C82.881 119.498 84.1432 119.389 85.4055 119.224V105.948C83.7042 106.332 81.8931 106.497 80.0821 106.497C78.4905 106.552 76.899 106.387 75.3623 106.113Z" fill="#0067AC"/>
<path d="M108.127 84.6082H105.053C104.998 84.9373 104.944 85.2665 104.889 85.5956V97.9389V110.227V136.56C105.712 136.121 106.48 135.682 107.303 135.243V107.978C107.578 107.649 107.852 107.375 108.127 107.045C109.115 106.003 109.993 104.906 110.871 103.699C110.926 103.589 111.035 103.48 111.09 103.37V84.6082H110.871H108.127Z" fill="#0067AC"/>
<path d="M87.7109 107.375V118.785V141.058C88.5341 140.948 89.3025 140.784 90.1257 140.674V118.237C91.3879 117.853 92.7051 117.469 93.9125 116.975V102.328C92.0465 103.589 89.9611 104.632 87.7109 105.345V107.375Z" fill="#0067AC"/>
<path d="M118.06 84.6082H115.59H113.889H113.56V85.5408V99.5298V132.061C114.383 131.458 115.151 130.799 115.919 130.086V94.2633C116.962 91.3009 117.731 88.0643 118.06 84.6082Z" fill="#0067AC"/>
<path d="M125.524 36.1129C113.834 24.4828 97.7541 17.2414 80.0276 17.1865C62.3011 17.2414 46.221 24.4279 34.5314 36.1129C22.8417 47.7978 15.6523 63.8715 15.6523 81.5361C15.6523 87.4608 16.5853 93.5502 18.3415 99.4201C18.6159 100.353 18.8903 101.285 19.2196 102.218C20.3172 105.455 21.5795 108.582 23.1161 111.434V98.7618C23.0613 98.5423 23.0064 98.268 22.8966 98.0486C21.36 92.6724 20.4819 87.0219 20.4819 81.5361C20.4819 65.1332 27.1773 50.2665 37.9889 39.4593C48.6906 28.652 63.5634 21.9593 80.0276 21.9593C96.4919 21.9593 111.365 28.652 122.176 39.4593C132.988 50.2665 139.683 65.1332 139.683 81.5361C139.683 87.0219 138.805 92.6724 137.268 98.0486C137.159 98.268 137.104 98.5423 137.049 98.7618V111.434C138.586 108.527 139.848 105.455 140.945 102.218C141.22 101.34 141.549 100.353 141.823 99.4201C143.525 93.5502 144.513 87.4608 144.513 81.5361C144.403 63.8166 137.213 47.743 125.524 36.1129Z" fill="#00AE8E"/>
</svg>
